<?xml version="1.0" encoding="UTF-8" standalone="no"?><!DOCTYPE svg PUBLIC "-//W3C//DTD SVG 1.1//EN" "http://www.w3.org/Graphics/SVG/1.1/DTD/svg11.dtd"><svg width="100%" height="100%" viewBox="0 0 3334 1146" version="1.1" xmlns="http://www.w3.org/2000/svg" xmlns:xlink="http://www.w3.org/1999/xlink" xml:space="preserve" xmlns:serif="http://www.serif.com/" style="fill-rule:evenodd;clip-rule:evenodd;stroke-linejoin:round;stroke-miterlimit:2;"><g id="LOGO"><path id="path2" d="M889.112,964.83l0,-251.536c0,-106.354 49.801,-173.882 173.036,-173.882l89.473,0c125.77,0 173.882,64.997 173.882,174.729l0,5.058c0,7.594 -5.067,13.507 -13.507,13.507l-84.406,0c-8.441,0 -13.507,-5.067 -13.507,-13.507c0,-63.3 -30.389,-80.19 -72.591,-80.19l-70.064,0c-44.73,0 -70.898,19.412 -70.898,76.812l0,246.474c0,59.08 26.168,76.807 70.898,76.807l70.064,0c42.203,0 72.591,-16.034 72.591,-77.654c0,-8.441 5.067,-13.499 13.507,-13.499l84.406,0c8.441,0 13.507,5.909 13.507,13.499l0,5.067c0,108.043 -48.112,172.193 -173.882,172.193l-89.473,0c-123.235,0 -173.036,-67.529 -173.036,-173.878" style="fill:#fff;fill-rule:nonzero;"/><path id="path4" d="M1695.207,942.878l-70.056,-272.638l-12.657,0l-70.056,272.638l152.772,0l-0.004,0Zm146.876,191.606l-85.252,0c-8.441,0 -14.35,-7.594 -16.881,-16.881l-20.255,-78.496l-202.586,0l-20.255,78.496c-2.531,9.287 -7.598,16.881 -16.039,16.881l-86.095,0c-8.441,0 -13.499,-7.594 -10.968,-16.881l147.705,-560.463c2.54,-8.441 8.445,-13.507 16.039,-13.507l142.651,0c7.594,0 13.499,5.067 16.034,13.507l146.872,560.463c2.531,9.287 -2.527,16.881 -10.968,16.881" style="fill:#fff;fill-rule:nonzero;"/><path id="path6" d="M2277.632,725.95l0,395.026c0,9.287 -4.225,13.507 -12.665,13.507l-83.563,0c-5.909,0 -12.665,-4.216 -12.665,-13.507l0,-29.538l-11.814,0c-18.566,29.538 -54.017,46.419 -99.598,46.419l-10.13,0c-95.377,0 -131.68,-51.486 -131.68,-142.647l0,-269.26c0,-9.283 6.756,-13.507 11.814,-13.507l83.563,0c8.445,0 13.512,4.225 13.512,13.507l0,259.135c0,36.289 19.408,55.702 49.801,55.702l38.821,0c32.082,0 55.71,-19.412 55.71,-56.553l0,-258.288c0,-9.283 6.756,-13.507 12.665,-13.507l83.563,0c8.441,0 12.665,4.225 12.665,13.507" style="fill:#fff;fill-rule:nonzero;"/><path id="path8" d="M2697.128,720.045c0,-57.399 -26.164,-76.812 -70.907,-76.812l-133.364,0l0,391.652l133.364,0c44.743,0 70.907,-17.728 70.907,-76.807l0,-238.033Zm111.416,-2.531l0,243.096c0,106.345 -49.801,173.878 -173.036,173.878l-241.407,0c-8.441,0 -12.657,-4.216 -12.657,-12.665l0,-565.53c0,-8.441 4.216,-12.657 12.657,-12.657l241.407,0c123.235,0 173.036,67.524 173.036,173.878" style="fill:#fff;fill-rule:nonzero;"/><path id="path10" d="M2912.367,1120.976l0,-395.026c0,-9.283 4.225,-13.499 13.512,-13.499l82.717,0c5.909,0 12.665,4.216 12.665,13.499l0,29.546l12.665,0c17.719,-28.695 51.486,-46.419 97.062,-46.419l6.756,0c14.582,0 18.304,9.734 15.918,48.533c-2.798,45.469 -10.336,48.529 -23.259,48.529l-50.901,0c-34.617,0 -58.242,19.412 -58.242,56.557l0,258.284c0,9.287 -6.756,13.512 -12.665,13.512l-82.717,0c-9.287,0 -13.512,-4.225 -13.512,-13.512" style="fill:#fff;fill-rule:nonzero;"/><path id="path12" d="M3319.822,712.447l-82.687,0c-8.462,0 -12.669,4.207 -12.669,13.512l0,395.039c0,9.253 4.207,13.512 12.669,13.512l82.687,0c8.462,0 13.512,-4.259 13.512,-13.512l0,-395.039c0,-9.304 -5.05,-13.512 -13.512,-13.512" style="fill:#fff;fill-rule:nonzero;"/><path id="path14" d="M3332.491,557.161l0,76.803c0,8.41 -4.207,13.512 -12.669,13.512l-81.844,0c-9.304,0 -13.512,-5.101 -13.512,-13.512l0,-76.803c0,-9.304 4.207,-13.512 13.512,-13.512l81.844,0c8.462,0 12.669,4.207 12.669,13.512" style="fill:#00adde;fill-rule:nonzero;"/><path id="path16" d="M663.516,927.118l-179.263,0c-12.463,0 -22.571,10.108 -22.571,22.571l0,27.011c0,17.264 -3.988,32.237 -18.239,39.8l0,0.133c-3.21,1.861 -5.467,43.08 0.15,45.576c14.169,7.585 18.089,22.524 18.089,39.727l0,27.011c0,12.467 10.108,22.571 22.571,22.571l179.263,0c12.467,0 22.571,-10.104 22.571,-22.571l0,-179.263c0,-12.463 -10.104,-22.571 -22.571,-22.571" style="fill:#fff;fill-rule:nonzero;"/><path id="path18" d="M262.908,1016.724c-14.513,-7.478 -18.738,-22.567 -18.738,-40.02l0,-27.011c0,-12.467 -10.104,-22.571 -22.571,-22.571l-179.263,0c-12.463,0 -22.571,10.104 -22.571,22.571l0,179.263c0,12.463 10.108,22.571 22.571,22.571l179.263,0c12.467,0 22.571,-10.108 22.571,-22.571l0,-27.011c0,-17.552 4.319,-32.735 18.965,-40.17c7.448,-3.58 6.116,-40.81 -0.228,-45.052" style="fill:#fff;fill-rule:nonzero;"/><path id="path20" d="M705.122,542.299l-46.414,173.165c-3.21,12.033 -15.588,19.198 -27.677,15.987l-173.109,-46.414c-12.033,-3.21 -19.198,-15.588 -15.987,-27.677l0.567,-2.119c4.053,-15.059 -7.293,-29.856 -22.885,-29.856l-161.316,0c-10.727,0 -20.113,7.203 -22.894,17.564l-17.865,66.613c-3.21,12.033 -15.588,19.198 -27.621,15.987l-173.165,-46.414c-12.033,-3.21 -19.198,-15.588 -15.987,-27.677l46.414,-173.109c3.21,-12.033 15.588,-19.198 27.677,-15.987l173.109,46.414c12.089,3.21 19.198,15.588 15.987,27.621l-3.743,13.937c-4.04,15.055 7.306,29.843 22.894,29.843l161.333,0c10.727,0 20.113,-7.203 22.894,-17.564l21.02,-78.359c3.21,-12.089 15.588,-19.198 27.621,-15.987l173.165,46.414c12.033,3.21 19.198,15.588 15.987,27.621" style="fill:#fff;fill-rule:nonzero;"/><path id="path22" d="M3252.276,477.818c-747.742,-457.406 -2113.492,-616.9 -2916.166,-140.846c-11.5,6.82 -25.494,8.015 -38.185,3.803l-184.313,-61.16c-11.599,-3.851 -12.975,-20.418 -1.749,-25.249c1006.872,-433.541 2375.149,-282.522 3140.408,223.447" style="fill:#00adde;fill-rule:nonzero;"/><path id="path24" d="M3132.384,419.632c-709.252,-296.748 -1683.367,-380.633 -2322.013,-46.926c-11.857,6.193 -25.498,8.024 -38.193,3.812l-184.313,-61.16c-11.599,-3.851 -12.82,-20.083 -1.741,-25.253c710.438,-331.395 1908.048,-193.183 2546.26,129.526" style="fill:#00adde;fill-rule:nonzero;"/><rect id="path26" x="190.304" y="1016.724" width="297.65" height="45.194" style="fill:#fff;"/></g></svg>