<?xml version="1.0" encoding="UTF-8" standalone="no"?><!DOCTYPE svg PUBLIC "-//W3C//DTD SVG 1.1//EN" "http://www.w3.org/Graphics/SVG/1.1/DTD/svg11.dtd"><svg width="100%" height="100%" viewBox="0 0 800 300" version="1.1" xmlns="http://www.w3.org/2000/svg" xmlns:xlink="http://www.w3.org/1999/xlink" xml:space="preserve" xmlns:serif="http://www.serif.com/" style="fill-rule:evenodd;clip-rule:evenodd;stroke-linejoin:round;stroke-miterlimit:2;"><g id="LOGO"><path id="path2" d="M219.074,240.53l0,-58.529c0,-24.747 11.588,-40.46 40.263,-40.46l20.819,0c29.265,0 40.46,15.124 40.46,40.657l0,1.177c0,1.767 -1.179,3.143 -3.143,3.143l-19.64,0c-1.964,0 -3.143,-1.179 -3.143,-3.143c0,-14.729 -7.071,-18.659 -16.891,-18.659l-16.303,0c-10.408,0 -16.497,4.517 -16.497,17.873l0,57.351c0,13.747 6.089,17.872 16.497,17.872l16.303,0c9.82,0 16.891,-3.731 16.891,-18.069c0,-1.964 1.179,-3.141 3.143,-3.141l19.64,0c1.964,0 3.143,1.375 3.143,3.141l0,1.179c0,25.14 -11.195,40.067 -40.46,40.067l-20.819,0c-28.675,0 -40.263,-15.713 -40.263,-40.459" style="fill:#454746;fill-rule:nonzero;"/><path id="path4" d="M406.641,235.422l-16.301,-63.439l-2.945,0l-16.301,63.439l35.548,0Zm34.176,44.584l-19.837,0c-1.964,0 -3.339,-1.767 -3.928,-3.928l-4.713,-18.265l-47.139,0l-4.713,18.265c-0.589,2.161 -1.768,3.928 -3.732,3.928l-20.033,0c-1.964,0 -3.141,-1.767 -2.552,-3.928l34.369,-130.412c0.591,-1.964 1.965,-3.143 3.732,-3.143l33.193,0c1.767,0 3.141,1.179 3.731,3.143l34.175,130.412c0.589,2.161 -0.588,3.928 -2.552,3.928" style="fill:#454746;fill-rule:nonzero;"/><path id="path6" d="M542.163,184.946l0,91.917c0,2.161 -0.983,3.143 -2.947,3.143l-19.444,0c-1.375,0 -2.947,-0.981 -2.947,-3.143l0,-6.873l-2.749,0c-4.32,6.873 -12.569,10.801 -23.175,10.801l-2.357,0c-22.193,0 -30.64,-11.98 -30.64,-33.192l0,-62.653c0,-2.16 1.572,-3.143 2.749,-3.143l19.444,0c1.965,0 3.144,0.983 3.144,3.143l0,60.297c0,8.444 4.516,12.961 11.588,12.961l9.033,0c7.465,0 12.963,-4.517 12.963,-13.159l0,-60.1c0,-2.16 1.572,-3.143 2.947,-3.143l19.444,0c1.964,0 2.947,0.983 2.947,3.143" style="fill:#454746;fill-rule:nonzero;"/><path id="path8" d="M639.774,183.572c0,-13.356 -6.088,-17.873 -16.499,-17.873l-31.032,0l0,91.132l31.032,0c10.411,0 16.499,-4.125 16.499,-17.872l0,-55.387Zm25.925,-0.589l0,56.565c0,24.745 -11.588,40.459 -40.263,40.459l-56.172,0c-1.964,0 -2.945,-0.981 -2.945,-2.947l0,-131.591c0,-1.964 0.981,-2.945 2.945,-2.945l56.172,0c28.675,0 40.263,15.712 40.263,40.459" style="fill:#454746;fill-rule:nonzero;"/><path id="path10" d="M689.857,276.863l0,-91.917c0,-2.16 0.983,-3.141 3.144,-3.141l19.247,0c1.375,0 2.947,0.981 2.947,3.141l0,6.875l2.947,0c4.123,-6.677 11.98,-10.801 22.585,-10.801l1.572,0c3.393,0 4.259,2.265 3.704,11.293c-0.651,10.58 -2.405,11.292 -5.412,11.292l-11.844,0c-8.055,0 -13.552,4.517 -13.552,13.16l0,60.099c0,2.161 -1.572,3.144 -2.947,3.144l-19.247,0c-2.161,0 -3.144,-0.983 -3.144,-3.144" style="fill:#454746;fill-rule:nonzero;"/><path id="path12" d="M784.666,181.804l-19.24,0c-1.969,0 -2.948,0.979 -2.948,3.144l0,91.92c0,2.153 0.979,3.144 2.948,3.144l19.24,0c1.969,0 3.144,-0.991 3.144,-3.144l0,-91.92c0,-2.165 -1.175,-3.144 -3.144,-3.144" style="fill:#454746;fill-rule:nonzero;"/><path id="path14" d="M787.614,145.671l0,17.871c0,1.957 -0.979,3.144 -2.948,3.144l-19.044,0c-2.165,0 -3.144,-1.187 -3.144,-3.144l0,-17.871c0,-2.165 0.979,-3.144 3.144,-3.144l19.044,0c1.969,0 2.948,0.979 2.948,3.144" style="fill:#00adde;fill-rule:nonzero;"/><path id="path16" d="M166.581,231.755l-41.712,0c-2.9,0 -5.252,2.352 -5.252,5.252l0,6.285c0,4.017 -0.928,7.501 -4.244,9.261l0,0.031c-0.747,0.433 -1.272,10.024 0.035,10.605c3.297,1.765 4.209,5.241 4.209,9.244l0,6.285c0,2.901 2.352,5.252 5.252,5.252l41.712,0c2.901,0 5.252,-2.351 5.252,-5.252l0,-41.712c0,-2.9 -2.351,-5.252 -5.252,-5.252" style="fill:#454746;fill-rule:nonzero;"/><path id="path18" d="M73.365,252.605c-3.377,-1.74 -4.36,-5.251 -4.36,-9.312l0,-6.285c0,-2.901 -2.351,-5.252 -5.252,-5.252l-41.712,0c-2.9,0 -5.252,2.351 -5.252,5.252l0,41.712c0,2.9 2.352,5.252 5.252,5.252l41.712,0c2.901,0 5.252,-2.352 5.252,-5.252l0,-6.285c0,-4.084 1.005,-7.617 4.413,-9.347c1.733,-0.833 1.423,-9.496 -0.053,-10.483" style="fill:#454746;fill-rule:nonzero;"/><path id="path20" d="M176.262,142.213l-10.8,40.293c-0.747,2.8 -3.627,4.467 -6.44,3.72l-40.28,-10.8c-2.8,-0.747 -4.467,-3.627 -3.72,-6.44l0.132,-0.493c0.943,-3.504 -1.697,-6.947 -5.325,-6.947l-37.536,0c-2.496,0 -4.68,1.676 -5.327,4.087l-4.157,15.5c-0.747,2.8 -3.627,4.467 -6.427,3.72l-40.293,-10.8c-2.8,-0.747 -4.467,-3.627 -3.72,-6.44l10.8,-40.28c0.747,-2.8 3.627,-4.467 6.44,-3.72l40.28,10.8c2.813,0.747 4.467,3.627 3.72,6.427l-0.871,3.243c-0.94,3.503 1.7,6.944 5.327,6.944l37.54,0c2.496,0 4.68,-1.676 5.327,-4.087l4.891,-18.233c0.747,-2.813 3.627,-4.467 6.427,-3.72l40.293,10.8c2.8,0.747 4.467,3.627 3.72,6.427" style="fill:#454746;fill-rule:nonzero;"/><path id="path22" d="M768.949,127.209c-173.989,-106.432 -491.78,-143.544 -678.551,-32.773c-2.676,1.587 -5.932,1.865 -8.885,0.885l-42.887,-14.231c-2.699,-0.896 -3.019,-4.751 -0.407,-5.875c234.285,-100.879 552.664,-65.739 730.729,51.993" style="fill:#00adde;fill-rule:nonzero;"/><path id="path24" d="M741.052,113.67c-165.033,-69.049 -391.696,-88.568 -540.3,-10.919c-2.759,1.441 -5.933,1.867 -8.887,0.887l-42.887,-14.231c-2.699,-0.896 -2.983,-4.673 -0.405,-5.876c165.309,-77.111 443.976,-44.951 592.479,30.139" style="fill:#00adde;fill-rule:nonzero;"/><rect id="path26" x="56.471" y="252.605" width="69.259" height="10.516" style="fill:#454746;fill-rule:nonzero;"/></g></svg>